<?xml version="1.0" encoding="UTF-8"?>
<svg width="721px" height="115px" viewBox="0 0 721 115" version="1.1" xmlns="http://www.w3.org/2000/svg" xmlns:xlink="http://www.w3.org/1999/xlink">
    <!-- Generator: Sketch 46.1 (44463) - http://www.bohemiancoding.com/sketch -->
    <title>logo/Treasures/coloured</title>
    <desc>Created with Sketch.</desc>
    <defs></defs>
    <g id="UI-Kit" stroke="none" stroke-width="1" fill="none" fill-rule="evenodd">
        <g id="Logo" transform="translate(-200.000000, -597.000000)">
            <g id="logo/Treasures/coloured_100h" transform="translate(200.000000, 597.000000)">
                <g id="logo/Treasures/coloured">
                    <g id="Group-13-Copy" transform="translate(0.000000, 3.000000)">
                        <g id="Group">
                            <polygon id="Fill-1" fill="#FFFFFE" points="16.4700193 83.158598 82.5549655 83.158598 82.5549655 17.0736517 16.4700193 17.0736517"></polygon>
                            <path d="M80.3965223,81.0842974 L56.4158523,60.9741917 C56.4158523,60.9741917 53.1672124,57.8023777 49.5234675,57.8023777 C45.8431389,57.8023777 42.594499,60.9741917 42.594499,60.9741917 L18.6211457,81.0842974 L18.5443198,81.0147883 L38.6580839,57.0341183 C38.6580839,57.0341183 41.8225811,53.7964534 41.8225811,50.1088081 C41.8225811,46.4577465 38.6580839,43.2164233 38.6580839,43.2164233 L18.5443198,19.2174614 L18.6211457,19.1333187 L42.594499,39.2653747 C42.594499,39.2653747 45.8431389,42.4445055 49.5234675,42.4445055 C53.1672124,42.4445055 56.4158523,39.2653747 56.4158523,39.2653747 L80.3965223,19.1333187 L80.4952985,19.2394117 L60.3412923,43.2164233 C60.3412923,43.2164233 57.1987453,46.4577465 57.1987453,50.1088081 C57.1987453,53.7964534 60.3412923,57.0341183 60.3412923,57.0341183 L80.4952985,81.0074715 L80.3965223,81.0842974 Z M91.6167687,50.1088081 L91.6167687,50.1014913 C91.6167687,43.600553 91.8801719,37.7727563 96.7019146,27.5366137 C98.0957567,24.5586938 101.17977,20.2198571 96.6360638,15.1566614 C92.94476,11.4763328 88.7522584,12.0799653 85.9279904,13.7079436 C87.5523103,10.8836756 88.1559428,6.67288209 84.4682974,2.97791997 C79.4087602,-1.55115241 75.05529,1.52554377 72.0920035,2.92670267 C61.8448858,7.75942045 56.0463561,8.02648207 49.5234675,8.02648207 C42.9749703,8.02648207 37.1691239,7.75942045 26.9439564,2.92670267 C23.9660365,1.52554377 19.5942744,-1.55115241 14.5493706,2.97791997 C10.8617253,6.67288209 11.4836496,10.8836756 13.1079696,13.7079436 C10.2763847,12.0726485 6.07656642,11.4763328 2.3816043,15.1566614 C-2.15844322,20.2198571 0.940203232,24.5586938 2.30843673,27.5366137 C7.1594464,37.7727563 7.42650802,43.600553 7.42650802,50.1088081 C7.42650802,56.635355 7.1594464,62.4777852 2.30843673,72.7066111 C0.940203232,75.6625808 -2.15844322,80.0306845 2.3816043,85.0902217 C6.07656642,88.7595752 10.2763847,88.1522844 13.1079696,86.5425979 C11.4836496,89.3741828 10.8617253,93.5740011 14.5493706,97.2323794 C19.5942744,101.794377 23.9660365,98.7103643 26.9439564,97.3092054 C37.1764407,92.480146 42.9749703,92.2240595 49.5234675,92.2240595 C56.0463561,92.2240595 61.8448858,92.480146 72.0883451,97.3092054 C75.05529,98.7103643 79.4087602,101.794377 84.4682974,97.2323794 C88.1559428,93.5740011 87.5376768,89.3741828 85.9206736,86.5425979 C88.7522584,88.1522844 92.94476,88.7815255 96.6360638,85.0902217 C101.17977,80.0306845 98.0957567,75.6625808 96.7019146,72.7066111 C91.8801719,62.4631517 91.6167687,56.635355 91.6167687,50.1088081 L91.6167687,50.1088081 Z" id="Logomark" fill="#FF3333"></path>
                        </g>
                        <path d="M163.44494,88.5441383 C171.683766,85.5925337 181.880552,71.5348292 180.190254,49.3959612 C178.562288,27.9794114 170.396793,11.1534318 148.653917,9.57313169 C148.653917,9.57313169 144.536337,9.27613793 141.086076,9.26147157 C137.386487,9.23580544 136.594504,9.1111414 136.31951,13.063725 C135.84652,20.4592362 135.710856,78.0576921 136.183846,86.3698507 C136.238845,87.51016 136.363509,90.2454359 141.108076,90.7257591 C149.783227,91.5654081 156.958743,90.8907556 163.44494,88.5441383 Z M155.033783,5.92487504 C173.43273,5.84054348 197.643221,18.4536117 197.547889,49.9642826 C197.485557,77.3720398 177.693307,94.2530183 159.415358,94.2530183 L113,94.2640181 L113.058665,93.2850386 C115.669277,92.8193818 118.602549,91.191416 119.090205,89.4534525 C120.626506,82.8499247 120.27818,22.4318614 119.346867,12.4807372 C119.053539,9.36780267 116.596924,7.36217816 113.615987,6.87085516 L113.524322,5.92487504 C113.524322,5.92487504 150.912536,5.94687458 155.033783,5.92487504 Z M256.799977,72.6018068 C257.166636,53.6198724 243.251929,48.5856449 228.842232,47.7973282 C228.541571,47.7753286 228.655235,47.0640103 228.878897,47.0273444 C233.561132,46.8403483 252.176408,44.6843936 251.42109,26.9014341 C250.665773,9.57313169 237.521049,9.18447319 232.71415,9.1111414 C228.790899,9.05980914 227.936584,9.05980914 226.279285,9.14047412 C223.489011,9.26147157 222.792359,9.46680059 222.807025,12.4954036 C222.807025,12.8803955 222.194705,43.7127474 221.828046,65.389625 C221.655716,77.1703774 221.60805,86.24152 221.60805,86.24152 C221.677715,88.4011413 221.410054,90.5900953 226.726609,90.8394234 C232.215494,91.1070844 239.292012,91.334413 244.245574,90.2821018 C248.781146,89.3141221 256.491984,85.992192 256.799977,72.6018068 Z M251.105764,47.0823432 C272.749642,52.4465638 274.054948,68.069902 273.754287,72.4624764 C272.764308,92.0237318 256.176657,94.2640181 249.496131,94.2640181 L198.435204,94.2640181 L198.49387,93.2777055 C202.204458,92.7680495 204.9874,90.7367589 204.9874,84.2175626 L205.28806,16.851312 C205.372392,9.54746556 203.451099,7.3145125 199.40685,6.83785585 L199.315186,5.92487504 L237.924374,5.92487504 C245.011892,5.92487504 266.35511,4.51690464 268.173738,24.1368255 C269.618374,39.8371622 252.36707,46.396691 251.105764,47.0823432 Z M334.363013,6.19253608 L335.239328,6.1852029 L335.539989,21.925872 L334.575676,21.9185388 C333.024708,15.5093402 326.864838,9.46680059 314.512097,8.83614718 C299.922737,8.06982995 293.616203,16.7633139 293.520872,24.9911409 C293.43654,35.9249111 301.968694,38.1835303 314.607429,41.2671321 C320.56197,42.7227682 342.627506,45.601041 340.86021,70.3945198 C339.635569,87.7118225 324.683217,95.9469827 303.512329,95.2943297 C303.512329,95.2943297 294.71618,95.0010026 282.429438,91.5947408 C280.156153,90.9494211 279.551166,91.7157383 278.638185,93.3913697 L277.633539,93.442702 L277.666539,76.4700588 L278.638185,76.5177244 C279.122175,78.237355 279.257838,81.4382877 282.37444,84.151564 C284.644059,86.1535219 289.978946,91.0960847 301.679034,91.2244153 C313.162792,91.3784121 322.681259,86.5311806 323.957232,73.6467848 C324.305558,70.1818576 323.938899,62.2510243 316.195062,58.635767 C310.137856,55.8051598 293.31921,53.9388657 285.168381,46.7926826 C285.168381,46.7926826 275.499584,40.0571576 277.024885,27.4844218 C279.166174,9.71612868 293.997529,5.2722221 307.321915,5.00089447 C307.321915,5.00089447 319.241998,4.8835636 328.738465,7.33651204 C328.738465,7.33651204 331.063083,7.96716545 332.988042,7.23384753 C333.769026,6.97351967 334.135685,6.48586325 334.363013,6.19253608 L334.363013,6.19253608 Z" id="DBS" fill="#000000"></path>
                    </g>
                    <path d="M710.531447,46.7431932 C711.135329,47.0836305 711.108574,47.5426471 711.628371,47.7645052 C711.735388,47.9328113 711.735388,48.2808989 711.765964,48.3918279 C712.690897,49.1645059 713.803109,48.7896423 714.78155,49.1530305 L716.520575,49.776528 C717.327025,50.0978397 718.378084,51.5207912 719.4215,51.3524851 C720.438161,52.7869121 721,51.8612286 721,52.951393 C721,53.3453823 720.273813,54.6000278 720.273813,54.9863668 C720.273813,55.3956566 720.415229,55.3421046 720.220305,55.4912851 C719.715796,55.9656022 719.513229,56.7191545 718.951389,57.2393734 C717.602211,58.4366417 715.855541,59.6109593 714.265575,60.651397 C714.063007,60.7278997 713.757244,60.7278997 713.646405,60.6705227 C713.547033,60.7278997 713.390329,61.0836376 713.206871,61.2442934 C712.660321,61.7224358 711.861515,62.1049496 711.234702,62.5371903 C711.219413,62.6557696 711.204125,62.8279008 711.108574,63.0382834 C709.442167,63.8683385 709.442167,65.6546782 708.979701,66.7677935 C708.666294,67.4830944 708.933837,68.3437506 708.586032,69.0858275 C708.586032,69.2197073 708.754201,69.403314 708.586032,70.6311835 C709.231955,72.3792718 709.002633,71.8016759 710.741659,73.239928 C711.108574,73.5421139 711.414337,74.3874695 711.750676,74.7623331 C712.6221,75.7989457 713.757244,76.9388369 714.78155,78.292936 C715.488626,79.2147944 716.497643,81.0891123 716.833982,81.9994953 C716.921889,81.7661618 716.983042,81.605506 716.983042,81.5137027 L716.983042,82.4393862 C716.983042,82.3590583 716.921889,82.2098779 716.833982,81.9994953 C716.333296,83.3497692 714.533117,86.7044157 714.212067,86.9300989 C712.308693,88.3568755 709.74793,89.5350182 707.592303,90.8049642 L706.174328,90.7322866 C706.522133,90.1049639 706.843184,89.611521 707.083972,89.17163 C707.217743,88.9115206 708.211472,88.6934877 708.586032,88.2765476 C708.421684,88.0546896 708.352888,87.8290064 707.890421,87.8290064 C707.313294,87.8290064 706.973133,88.1617935 706.254591,88.6131598 C704.664624,89.5923953 702.023598,91.2716311 700.395412,91.0650736 C700.082005,91.1224507 699.416971,91.5929428 698.962149,91.5929428 L696.573377,91.5929428 C696.141487,91.5929428 695.549072,92.0328337 694.983411,92.0634348 C693.42402,92.1896644 693.236741,92.2279158 692.797207,92.2279158 C692.369139,92.2279158 691.241639,91.5929428 690.794461,91.5929428 C690.354927,91.5929428 690.354927,91.9142544 689.923037,91.9142544 C689.468215,91.9142544 689.651672,91.5929428 689.23507,91.5929428 C688.780248,91.5929428 688.883443,92.0634348 688.436265,92.0634348 C688.019663,92.0634348 687.82474,91.9142544 687.293477,91.7803745 C689.001926,91.1377513 690.847969,90.4415761 692.265944,89.5273679 C694.012614,88.3874766 695.384724,86.8765469 696.825631,85.7137048 C701.037513,82.2825555 705.612489,83.2503156 707.382091,79.7197127 C707.382091,79.6011334 707.053396,79.5131552 706.934913,79.2721715 C706.858472,79.2721715 706.575641,79.7464886 706.166684,79.7464886 C705.711862,79.7464886 705.620133,79.6011334 705.322014,79.536106 C705.478718,78.7710783 705.620133,78.4153404 705.620133,78.0251763 C705.620133,76.3306399 704.03781,76.8049571 704.03781,75.8142462 C704.03781,75.4279072 703.002039,74.7011309 702.723031,74.1044093 C701.671971,71.969982 700.850234,72.3754466 700.162267,70.2104182 C700.082005,70.0076859 699.871793,69.5448441 699.432259,69.5448441 C698.985081,69.5448441 699.157072,69.7781776 699.030945,69.9120574 C698.492038,70.0076859 697.773496,70.1989428 697.356894,70.3442981 C696.401385,70.6809103 695.392368,71.1131509 694.356597,71.4956648 C694.356597,71.4956648 678.380492,76.8776347 676.461831,76.8776347 C676.022297,76.8776347 675.842661,76.7055035 674.252695,76.7055035 C673.537974,76.5563231 672.693305,76.5716236 671.783661,76.4912957 C671.558161,76.388017 671.386169,76.2158858 671.27533,76.1279076 C669.52866,76.5907493 666.310507,74.567251 665.435261,73.4464854 L665.087456,72.7962119 C664.980439,72.7809113 664.548549,72.7350097 664.303939,72.4825505 C661.445057,74.1311852 657.084116,75.091295 653.529623,75.5005848 C652.47092,75.6115139 650.796869,75.9404758 650.364979,75.9404758 C649.933089,75.9404758 649.118995,75.7759948 648.423385,75.7147926 C646.581164,74.4486717 646.325088,72.4213483 645.044707,71.2623313 C644.803918,71.0710744 644.601351,70.5891069 644.601351,70.1989428 C644.601351,69.3727129 645.579791,69.514243 646.034613,67.2421107 C646.168385,66.752493 647.089495,66.0677932 647.788927,65.5513995 C648.087046,66.1481211 647.915055,66.7945695 647.865368,68.1104172 L649.096063,68.1104172 C649.149572,68.3781769 648.924072,68.6497617 648.797945,68.7033136 C649.096063,68.8983957 649.493555,68.8563192 649.933089,68.8563192 C651.389284,68.8563192 653.529623,68.3934774 654.813827,67.609324 C654.897912,67.9076848 655.077547,68.2366467 655.054615,68.3131495 C655.681429,68.3781769 655.799912,68.1639691 656.143895,67.7508541 C657.577158,67.0049521 660.092057,67.1503074 661.345684,65.9071373 C663.459269,66.0333669 662.6146,63.2869174 663.184083,62.3612339 C663.489845,62.0093212 664.017286,61.8792664 664.273363,61.4087744 C664.338337,61.259594 664.323049,60.9765337 664.414778,60.624621 C664.632634,60.5289925 664.712897,60.4371892 664.793159,60.2880088 C664.846668,60.1617792 664.846668,60.1044022 664.789337,59.8634184 C665.920659,58.3907401 666.811194,56.8071327 668.259745,55.3956566 C669.24583,54.4278965 673.618237,51.5666929 674.275627,51.5666929 C674.715161,51.5666929 675.154695,51.8612286 675.575119,51.8612286 C676.022297,51.8612286 675.789153,52.2513927 675.911458,52.3623217 C676.022297,52.3470212 676.289839,52.0333598 676.725551,52.0333598 C677.157441,52.0333598 677.619907,52.3623217 678.074729,52.4388245 C678.223789,53.4524862 679.748781,53.6552185 680.627849,53.9765302 C681.778281,54.359044 683.158035,54.2289893 684.285536,54.6000278 C685.046121,54.8524869 685.711155,55.6634163 686.3609,56.0535804 C686.651375,56.344291 686.659019,56.5967501 686.659019,56.979264 C686.659019,57.3694281 686.502316,58.1803575 686.502316,58.5628713 C686.502316,58.9645109 685.810528,59.1022159 685.653824,59.4809046 C685.481833,59.9093201 685.42068,60.6093204 685.153138,61.0568617 C684.598943,61.3054957 683.589925,61.3858236 683.63579,62.4492121 C683.509663,62.6557696 683.112171,62.7016712 683.062485,62.6557696 C682.240747,64.1475736 679.01495,65.6546782 677.516712,66.5115092 C675.620983,67.609324 673.782585,68.5464829 672.005339,69.8087787 C672.460161,69.9732596 672.930271,69.9503088 673.415669,70.1071395 C679.500348,69.9503088 679.687628,70.1071395 679.836687,70.1071395 C682.412739,69.3344615 689.869528,66.8481214 693.206164,64.2240764 C693.511927,64.1475736 694.096698,64.2087758 694.410105,64.1399233 C695.296817,63.9257156 696.191173,63.5470269 697.005267,63.2104147 C698.125123,62.7552232 699.283199,62.0819988 700.464208,61.3284465 C701.954802,60.3721619 701.587886,58.6393741 702.210878,57.3694281 C703.112878,55.4645091 704.576717,53.475437 705.234107,51.5666929 C705.425209,50.989097 705.283794,50.3464737 705.322014,49.6732493 C705.769192,49.1798064 707.129836,49.2907355 706.353963,48.2655983 C706.678836,48.1584944 706.858472,48.3076748 706.957845,48.3076748 C707.068684,48.1967458 707.068684,47.7186035 707.313294,47.5349969 C707.94393,47.6956527 708.180896,48.1814453 708.578388,48.4683307 C709.002633,48.0475654 709.553006,47.236636 710.531447,46.7431932 Z M676.538272,56.8606847 C675.143229,58.057953 673.45389,58.8229807 672.460161,59.8022162 C670.931347,61.28637 669.880287,62.9847315 668.615194,64.9126013 C671.611669,64.0175189 677.000738,61.8448402 678.223789,58.5246199 C677.746035,58.057953 677.111577,57.2929253 676.538272,56.8606847 Z M477.723676,46.6934664 C479.015524,48.009314 479.149295,48.2808989 480.418211,48.6863636 C481.41194,48.9923746 482.455355,49.5202438 483.540813,49.776528 C485.41361,50.2393698 488.184585,49.8912822 490.152933,50.8399166 C490.913518,51.184179 491.67028,52.1098626 492.385001,52.9705187 C491.899602,53.8426503 491.869026,55.5907387 491.869026,56.3672418 C491.869026,57.9699748 490.741526,58.6164233 489.331195,60.238282 C488.390975,61.3590476 486.50289,62.7016712 485.295127,63.8798139 L483.942126,65.318066 C483.540813,65.4022191 482.799338,65.704405 482.791694,65.9377385 C478.262583,68.4891059 472.185548,72.1038618 467.018157,73.0792721 C466.907318,73.4694363 466.735327,73.9667043 466.735327,74.3645187 C466.735327,76.6749024 472.732099,77.1836458 473.221319,77.1836458 L478.770914,77.1836458 C479.210448,77.1836458 481.052668,76.8776347 482.443889,76.8355582 C481.813253,77.1836458 482.008177,78.0557774 481.442516,78.1667064 L480.120092,79.0847397 C480.368524,79.1000402 477.574617,79.3486742 478.098236,79.4902044 C477.29943,79.8803685 475.805015,80.0027729 475.193489,80.0563249 C475.052074,80.1328276 474.849506,80.4923907 474.417616,80.4923907 C473.985726,80.4923907 474.253269,80.1863796 473.821379,80.1863796 C473.378023,80.1863796 473.378023,80.4923907 472.923201,80.4923907 C472.506599,80.4923907 472.388116,80.308784 472.304031,80.1940299 C471.654285,80.3317348 470.656734,80.4541393 470.014632,80.2705326 C467.056378,79.4749038 463.30314,78.8246303 461.824012,75.9940277 C461.644377,75.6268144 461.384478,75.2481257 461.113114,74.9880163 C458.942198,75.6268144 456.740706,75.9328255 454.405443,76.5907493 C453.239723,76.9273615 451.955519,77.1530447 450.701892,77.1836458 C447.021272,77.3366514 444.342026,76.8049571 441.90739,75.0568688 C441.055076,74.4486717 440.072813,73.3470318 439.377203,72.2109657 L440.519991,72.2109657 C440.569678,72.6317309 440.863975,72.9530426 441.280576,72.9530426 L444.728051,72.9530426 C445.171407,72.9530426 447.483738,72.0464847 448.894069,71.7404736 C449.582035,71.5912932 450.327332,71.8016759 450.992366,71.6218943 C453.465223,71.0175225 456.075672,70.5546807 458.651724,69.7399262 C459.599588,69.487467 460.367817,69.2005816 461.128402,68.768341 C461.518249,67.5634223 462.221504,66.4158808 463.062351,65.0847326 C463.383402,65.2721643 463.555394,65.2721643 463.578326,65.4136945 C463.876445,64.683093 464.751691,62.8699773 465.317352,62.1623267 C465.890657,61.4623263 466.169666,60.624621 466.444852,59.7065877 C466.490716,59.5268062 467.018157,59.4005767 467.228369,59.0410136 C467.721412,58.168882 467.958378,56.9180617 468.543149,56.068881 C469.670649,54.5350004 473.01493,52.0639609 473.634099,49.2295332 C475.396057,49.6196974 476.875184,48.3076748 477.723676,46.6934664 Z M480.551982,55.7552196 C479.359507,56.9486628 478.247295,58.2568602 476.695549,58.884183 C473.595879,60.1923803 472.380472,64.0901965 469.701226,66.0027658 C472.380472,65.593476 473.500328,64.4765355 475.418989,63.6962073 C475.977006,63.4628738 476.664973,63.4552235 477.26121,63.1721633 C479.585007,61.0492114 481.560999,60.2497574 482.642635,57.5759856 C481.935558,57.090193 481.343143,56.3672418 480.551982,55.7552196 Z M557.092046,44.0235197 C557.501004,44.0235197 558.001691,44.4098587 558.127818,44.6202413 C559.209454,44.7617714 560.570098,46.2038486 561.376547,46.3224279 C562.39703,46.4524826 563.608615,46.903849 564.877531,47.1027562 C565.982099,47.2825377 567.625574,47.2328109 568.416735,48.5027569 C568.496998,48.6787133 568.676633,48.7284401 568.676633,49.141555 C568.676633,49.5202438 567.086667,50.9431953 566.184667,51.7770755 C565.894192,52.0333598 565.206226,52.0563106 564.980726,52.3317206 C562.221217,55.5142359 559.702496,57.7213408 555.815487,60.7508506 C554.210232,61.9863703 552.031673,63.7918357 550.177986,65.2721643 C550.506681,65.7541318 553.984732,66.174897 554.986105,66.174897 C555.410351,66.174897 556.277953,65.704405 556.725131,65.704405 C557.172309,65.704405 558.204259,65.7541318 558.80814,66.0869189 C559.098615,66.228449 559.27825,66.9514002 559.65281,67.0929303 C561.407124,67.7393787 563.876158,67.4563185 565.034234,69.3344615 C566.219065,68.3207998 568.198879,67.8273569 569.483083,65.9606893 C571.004252,64.9508527 572.76621,64.5339126 573.970151,63.4858246 C576.52327,61.3054957 576.993381,59.0410136 578.942618,56.8300835 C578.984661,56.6962037 578.984661,56.4054932 579.061101,56.17981 C580.674,55.5065856 579.898127,53.7355465 580.723686,52.8251635 C581.300814,53.639918 582.821983,52.7677864 582.89078,53.639918 C583.07806,53.4601365 583.471729,53.1388248 584.144407,53.0125953 C584.197916,53.4448359 584.373729,53.9765302 584.190272,54.359044 C584.331687,54.4431971 584.518967,54.4431971 584.568653,54.5426507 C584.614518,54.4431971 584.778865,54.1333609 585.06934,53.9306285 C586.055425,54.5770769 586.919204,54.8792629 587.779162,55.3956566 C589.460857,55.8470229 592.025443,55.4912851 593.817977,57.0481164 C593.615409,57.4459309 593.645985,57.8705212 593.54279,58.3983904 C593.191163,58.6164233 592.900689,58.719702 592.766917,58.9224343 C592.877756,58.9836366 592.923621,58.9224343 593.103256,58.8115053 C593.409019,59.0027622 593.645985,59.4311778 593.581011,59.6836369 C593.103256,59.7448391 592.633146,59.6109593 592.335027,59.7524894 C591.398629,60.238282 590.466053,60.6705227 589.7284,61.148665 C587.010933,62.9503052 583.024551,66.6759902 581.396364,69.6136966 C581.530136,69.6863742 581.396364,69.6442977 581.858831,69.6442977 C583.143034,69.6442977 584.362263,68.990199 585.344526,68.408778 C585.436255,68.8563192 585.084628,69.0093247 585.06934,69.1087783 C585.787882,69.1738057 586.995645,68.2825484 587.832671,67.8120563 C588.405976,67.5098704 589.399705,67.4830944 590.049451,67.1044057 C592.495553,65.6546782 595.28946,63.6962073 597.8808,62.2350043 C598.381486,61.5503045 599.596893,60.984184 600.044071,60.1464787 C600.701461,58.9645109 601.274766,57.3694281 603.151385,57.1819963 C603.44186,56.8530344 604.179513,55.9656022 604.859835,55.9809028 L605.337589,56.4437446 C607.271539,58.360139 609.832302,57.3809035 611.926777,58.0809039 C611.964997,58.3257127 612.136989,58.3983904 612.136989,58.8115053 C612.136989,59.8328173 610.921582,61.1295393 610.921582,61.9634195 C610.921582,62.0093212 602.887665,70.4705276 602.887665,72.6317309 C605.203818,72.4442991 608.49459,70.6350086 610.703726,68.9213465 C610.860429,68.87927 611.330539,68.7033136 611.540751,68.7989421 C612.725582,67.8044061 614.116803,66.6912907 615.737345,65.4442956 C615.943735,65.4136945 616.176879,65.4136945 616.303006,65.4442956 C616.922176,64.958503 617.258515,64.350306 618.183447,63.5699777 C618.370727,63.5087755 618.71471,63.6809067 618.848481,63.635005 C619.700795,62.9273544 620.736567,62.0207966 621.317516,61.0836376 C621.634745,60.8656047 622.005482,60.6705227 622.43355,60.6705227 C622.873084,60.6705227 622.552033,60.8885556 622.601719,61.0033097 C622.819575,60.7432003 622.90366,60.1923803 623.224711,59.8022162 C623.924143,58.9377349 626.351135,58.6623249 626.351135,56.9486628 C626.844178,57.0328159 628.441788,57.0825427 628.113093,55.8737989 C628.365348,55.8087716 628.178068,55.6404655 628.636712,55.6404655 C629.076246,55.6404655 629.435517,55.9656022 629.775678,56.015329 C630.314585,56.4437446 631.980992,57.7748928 633.100848,57.4956577 C633.674154,57.7213408 634.354476,57.8590458 635.145637,58.0809039 C635.180035,58.3257127 635.359671,58.3257127 635.359671,58.719702 C635.359671,59.2360957 634.090755,59.2054946 634.434739,61.3858236 C634.434739,61.3858236 634.388874,61.6344576 633.964628,61.6344576 C633.525094,61.6344576 633.605357,61.3054957 633.509806,61.3054957 C633.062628,61.7683374 632.546653,61.9175178 632.61545,62.5754417 C632.61545,62.4492121 632.837128,62.1049496 633.414255,62.0093212 C633.032052,62.52954 632.210314,63.2027644 632.210314,63.5852782 C632.210314,63.9792675 632.561942,63.4360978 632.561942,63.8300871 C632.561942,64.2087758 632.20267,64.407683 632.279111,64.7863717 C632.477857,64.6371913 632.928857,64.5339126 632.928857,64.1399233 C632.928857,63.7535843 632.561942,63.6732564 632.63456,63.3748956 C633.158179,63.5317263 633.261374,63.6732564 633.697086,63.6732564 C634.113688,63.6732564 634.197772,63.2333655 634.388874,63.0994856 C635.145637,62.8585019 635.757162,62.1355507 635.967374,61.0147851 C635.967374,61.0147851 636.361044,61.0492114 636.399264,61.148665 C636.586544,60.9268069 636.854086,60.8273533 636.78529,60.4180635 C637.091053,60.3721619 637.400637,60.4180635 637.457968,60.513692 C637.503832,60.4180635 637.7064,60.238282 637.943366,60.1235278 C637.935722,60.0355497 637.817239,59.3738007 638.444053,59.4809046 C638.505205,59.7448391 638.466985,59.989648 638.547248,60.2153312 C639.625061,59.4541286 640.527062,57.9967508 641.711892,57.2929253 C642.640647,56.7344551 644.379673,56.1262581 644.723656,55.1776237 C645.071461,55.380356 644.78863,55.3268041 645.22052,55.3268041 C645.656232,55.3268041 646.604097,54.248115 647.758351,53.6093169 C648.052648,53.8043989 647.915055,54.0874592 648.366055,54.0874592 C648.797945,54.0874592 649.440046,53.3874588 650.143301,53.1770762 C650.468174,53.0776226 650.842733,53.4027594 651.148496,53.2497539 C651.545987,53.0737975 652.119293,52.5115021 652.551182,52.5115021 C652.986894,52.5115021 652.367725,52.8251635 652.807259,52.8251635 C653.246793,52.8251635 653.246793,52.3470212 653.663395,52.3470212 C655.077547,52.3470212 656.992387,53.7087705 656.992387,54.6956562 C656.992387,56.1874603 654.122039,57.7519419 653.059513,58.6164233 C653.170352,57.9546743 653.514335,57.4956577 653.663395,57.1054935 C652.986894,57.0672421 652.28364,57.3694281 651.844106,57.4000292 C651.389284,57.8016687 650.827445,58.6623249 650.25414,58.3257127 C649.558529,60.1044022 647.318817,61.0492114 646.072834,62.3153322 C644.089198,64.2546775 641.295291,66.0333669 639.323121,67.9076848 C638.161222,68.9978493 637.247756,70.2524947 636.116434,71.419162 C634.839874,72.7350097 633.563315,74.2880159 632.137696,75.6956669 C631.935128,75.7683445 631.552924,75.7683445 631.403865,75.7836451 C630.047043,76.8355582 629.12211,78.0251763 628.082517,78.9585101 C627.738534,79.2951223 626.813602,79.1153408 626.202076,79.5475814 C625.938356,79.7426635 625.716678,80.1290025 625.395627,80.4082376 C624.715305,80.4923907 623.572516,80.970533 623.140626,80.970533 C621.317516,80.970533 619.544092,78.8973079 619.08927,78.2240835 C618.745286,77.6962144 618.072608,77.1836458 618.072608,76.801132 C618.072608,76.801132 618.90199,75.8448473 619.051049,74.9650654 C619.1466,74.5060488 618.974609,73.959054 619.18482,73.5000374 C619.99127,71.7442988 620.453736,70.1300903 620.908558,68.7989421 C621.455109,67.2994878 622.609363,65.8344597 623.140626,64.518612 C623.014499,64.407683 622.945703,64.6218908 622.529101,64.6218908 C622.081923,64.6218908 619.318592,66.7142416 617.847108,67.9076848 C617.610142,68.1180674 617.338778,68.4891059 616.899244,68.9213465 C616.788405,68.990199 616.356515,68.9366471 616.108083,69.1738057 C612.136989,72.7962119 609.182556,75.9098747 604.194801,78.377089 C603.105521,78.8973079 600.953715,79.0847397 600.52947,79.0847397 C598.140698,79.0847397 596.072977,75.3284536 595.962138,75.0377431 C595.847477,74.7546828 596.080621,74.5060488 596.080621,74.1311852 C596.080621,73.737196 595.736638,73.2590537 595.736638,72.853589 C595.736638,72.4825505 595.916274,71.6754463 596.080621,70.3251724 C595.962138,70.2333691 596.157062,70.1071395 595.736638,70.1071395 C595.28946,70.1071395 594.578562,70.5891069 593.928816,70.7344622 C593.44724,71.5186156 592.510841,71.4650637 592.006332,71.8437524 C591.371875,72.3486707 590.244375,73.1175235 589.713112,73.1175235 C589.609917,73.3393816 589.227713,73.5000374 588.853154,73.959054 C588.646764,74.0432071 588.444196,73.8825512 588.325713,73.9055021 C587.32434,75.1792732 584.442526,75.8677981 582.867848,76.4224432 C582.554441,76.5371974 582.179882,76.9847386 581.824432,77.0535911 C580.979763,77.2869246 579.412729,77.3366514 578.969372,77.3366514 C578.036796,77.3366514 575.732109,76.8240828 575.223779,76.2923885 C573.714075,74.7240817 572.169973,72.2415668 572.169973,70.2677953 C572.169973,69.873806 572.678304,67.3645151 572.678304,66.974351 C572.678304,66.228449 572.215837,66.5115092 571.997981,66.5115092 C571.558447,66.5115092 570.11754,67.2727118 569.207896,67.6858268 C568.072752,68.2022205 566.421633,68.8983957 564.942506,69.9503088 C564.774336,70.0994892 564.659675,70.9065934 564.609989,71.392386 C564.472395,72.3601461 563.906734,73.4273597 563.348717,74.2306388 C562.840387,74.9229889 561.472098,75.4470329 560.382818,76.0973065 C560.115276,76.2617874 559.958572,76.5907493 559.717784,76.774356 C559.075682,77.2410229 558.047555,77.3596022 557.21053,77.6885641 C555.769623,78.2967611 554.290495,79.5131552 552.998647,80.4082376 C552.880164,80.4847404 552.486495,80.3317348 552.352724,80.3508605 C549.856935,82.3590583 547.326748,82.515889 544.559595,84.2639773 C544.093307,83.7169825 543.909849,83.0934849 543.909849,82.7224464 L543.909849,81.4295496 C543.909849,81.0508609 544.670434,81.1541396 544.899756,81.0432106 C545.048815,80.4694398 545.006773,79.647035 545.706205,79.1459419 C545.839977,79.0503134 546.268045,79.1382916 546.550875,78.8973079 C547.288528,78.377089 547.945918,77.8836462 548.530689,77.1147933 C550.491393,75.8945741 553.277656,73.2055017 554.554216,71.6218943 C553.239436,71.5186156 551.729732,71.392386 550.506681,71.3158833 C549.604681,71.2623313 548.500113,70.9869213 547.514028,70.6847354 C546.581451,70.3787243 545.109968,69.3344615 544.670434,69.3344615 C543.863985,69.3344615 540.749027,71.8781786 539.445713,72.6929331 C538.654552,73.1902012 537.496475,73.5612396 536.277246,73.9055021 C536.151119,74.0049557 536.128187,74.1617864 535.944729,74.2765405 C534.373873,74.9841911 532.615737,75.7683445 530.903465,76.4224432 C530.72383,76.5371974 530.567126,76.9541375 530.165813,77.1147933 C527.964321,78.0557774 523.366413,79.2492206 522.915413,79.2492206 L519.123955,79.2492206 C518.692065,79.2492206 517.511056,78.7213515 516.930107,78.377089 C515.936378,77.7727171 514.667462,76.6175253 513.945098,75.3781804 C513.436767,74.5366499 513.352683,73.297305 513.069852,72.302769 L512.519479,72.302769 C511.273496,73.4235346 509.488606,74.7623331 507.890995,75.7836451 C507.294758,76.1508584 506.820825,76.7667057 506.285741,77.0841922 C505.292012,77.6885641 503.919901,77.8683456 502.769469,78.3158868 C502.364333,78.4803678 501.96302,78.8628816 501.760452,79.1459419 C501.133638,79.2492206 500.445672,79.2492206 499.910587,79.2492206 C499.746239,79.2492206 499.792104,79.536106 499.364036,79.536106 L496.795629,79.536106 C496.348451,79.536106 495.014561,78.3158868 494.69351,78.1016791 C493.88706,77.5929356 492.056306,75.3590547 492.056306,75.2328251 C492.056306,74.8388359 492.385001,74.9880163 492.385001,74.594027 C492.385001,74.2000377 491.773475,73.1404744 491.586196,72.5131516 C491.44478,72.054135 491.532687,71.4000363 491.36834,70.6847354 L491.750543,70.4858282 C491.869026,69.9120574 492.056306,69.2770844 492.297094,68.6421114 C492.438509,68.4623299 492.610501,68.4623299 492.706052,68.3207998 C493.451348,66.7677935 494.162247,65.3257163 494.953408,63.9027647 C495.3509,63.8300871 495.63373,63.5470269 495.870696,63.4207973 C495.908917,63.3060431 495.893629,63.000032 495.962425,62.7972997 C496.990553,61.8371899 497.976637,60.8273533 498.75251,59.9590469 C499.329638,59.3011231 500.25457,58.9645109 500.827875,58.4672428 C502.337579,57.2202477 503.961944,55.7016677 505.613063,54.1486614 C505.807986,54.0874592 505.934113,54.0874592 506.083173,54.0492078 C507.634919,52.7104093 509.209597,51.6202448 510.478513,50.3847251 C511.101504,50.0672386 514.017717,48.2655983 514.915895,48.2655983 C515.347785,48.2655983 515.825539,48.5677843 516.414132,48.7016641 C516.624344,48.9579484 516.819268,49.27926 516.899531,49.4628667 C517.683048,49.2295332 519.758413,50.4344519 520.415803,50.7328127 C521.222252,51.1421025 522.766354,51.6546711 523.649244,51.6546711 C524.685015,51.6508459 525.911888,51.8612286 526.955304,51.9377313 C527.261066,52.2513927 527.536253,52.6836334 528.155423,52.8978411 C528.208931,53.2994807 527.792329,53.8732514 527.517143,54.1486614 C527.394838,54.2289893 527.096719,54.1716122 526.829177,54.4431971 C526.98588,55.62899 525.827804,55.0972958 524.864651,56.7344551 C524.990778,56.8071327 525.223922,56.5967501 526.546346,56.6350015 C526.611321,56.9142366 526.790956,56.8300835 526.790956,57.2202477 C526.790956,57.6180621 526.603677,58.3830898 526.424041,58.7656037 C526.546346,58.8459316 526.790956,58.8115053 527.096719,58.8459316 L527.096719,59.4120521 C527.134939,59.7869157 525.128371,62.0666982 524.363964,63.2792672 C523.744795,64.2546775 523.102693,65.6546782 522.5141,66.6683399 C522.246557,67.1694331 519.116311,71.8781786 519.116311,73.4044089 C519.116311,73.8098736 519.230972,73.7792725 519.52909,74.0661579 C524.685015,73.9667043 526.14121,73.1672503 528.873965,71.7404736 C530.269008,71.4650637 532.141805,71.1820034 533.189042,69.8432049 C533.361034,69.8126038 533.720305,69.8126038 533.854076,69.7705273 C536.449238,67.9382859 538.906806,66.3699791 541.303222,64.7060438 L541.303222,61.5732554 C542.086739,60.8656047 541.849773,59.6721615 542.205222,58.9377349 C542.713552,57.7519419 543.57351,56.3557664 544.521375,54.9481154 C544.693366,54.8677875 544.781273,54.9481154 544.899756,54.798935 C547.020985,51.8612286 551.290198,48.2885491 553.0598,46.7814446 C553.277656,46.5978379 553.805097,46.3721547 554.107037,46.3224279 C554.172012,46.2574006 555.158097,45.3278919 555.666428,45.0754328 C556.193868,44.834449 556.537851,44.3524816 557.092046,44.0235197 Z M515.168149,59.3011231 C509.561224,60.4524898 502.402553,64.5683388 501.447045,70.3442981 C507.084546,67.609324 512.114343,64.4191584 516.758115,59.4732543 L515.168149,59.3011231 Z M458.196901,43.0787104 C458.942198,43.0787104 460.42897,44.4098587 460.876148,44.6202413 C461.697885,44.9224272 462.863606,44.99893 463.608902,45.3278919 C463.937597,45.4732472 464.465038,45.9819906 464.465038,46.3721547 C464.465038,46.7737943 463.97964,47.1448327 463.796182,47.4049421 C463.601258,47.6574013 463.742674,48.2311721 463.517174,48.6404619 C463.391046,48.9005713 462.741301,49.2142327 462.45847,49.2295332 C461.996004,49.914233 461.384478,50.3082223 460.7118,50.4803535 C460.570385,50.5912826 460.780597,51.07325 460.4863,51.2262556 C457.79941,52.8366389 456.419655,56.0000285 453.851248,56.2104111 C454.382511,55.2541265 455.097231,54.274891 455.888392,53.5213387 C455.941901,53.4027594 455.941901,53.0776226 456.003054,52.9207919 C456.836257,52.2819938 457.711503,50.4344519 458.009622,49.2371835 C457.3293,49.2142327 456.106248,49.6732493 455.299799,49.7038504 C455.143096,49.803304 454.844977,50.2087687 454.554502,50.3847251 C454.30607,50.5186049 453.671612,50.6295339 453.186214,50.6524848 C450.602519,52.5956552 447.491382,53.9918307 445.343399,56.015329 C444.223543,57.0672421 442.453941,57.8322698 441.21178,58.9377349 C439.308406,60.651397 437.496762,62.3344579 435.681296,64.2240764 C434.546151,65.4519459 433.418651,66.9514002 432.4211,68.1639691 C432.031253,68.6497617 431.25538,68.7530404 430.964905,69.1049532 C429.822117,70.5470304 428.70226,72.6470315 427.379836,74.1617864 C424.998709,76.7246292 423.064759,79.6087837 421.096412,83.1432117 C420.565149,83.1546871 419.938335,82.8448509 419.17775,82.7530476 C419.13953,82.6115174 415.787606,79.895669 415.787606,79.0847397 C415.787606,78.6907504 416.185097,78.6563242 416.311224,78.5606957 C416.311224,78.4497667 416.043682,78.4191656 415.676767,78.2240835 C415.60797,77.6732635 415.244877,76.9541375 415.244877,76.5716236 C415.244877,76.166159 415.623258,75.6115139 415.848758,75.3590547 C416.647563,74.5366499 417.511343,73.8519501 418.317792,73.1481246 C421.176674,70.6350086 423.424031,67.0623292 424.983421,64.2240764 C425.335048,63.5470269 424.983421,62.3803596 425.445887,61.6841844 C426.275268,60.4524898 426.44726,59.5268062 426.844752,58.3983904 C426.986167,58.2262591 427.314862,57.920248 427.425701,57.7672425 C427.670311,57.4459309 427.651201,57.0825427 427.597692,56.4705205 C428.358277,56.2792636 429.092108,56.4437446 429.523998,56.5967501 L429.890913,55.820247 C430.487151,55.9656022 431.224803,56.4437446 431.656693,56.4437446 C432.516651,56.4437446 435.039194,53.3874588 436.44188,52.4158737 C438.84594,50.7863646 441.532831,49.141555 443.959823,47.7071281 C445.832619,46.5710619 448.037933,45.5688756 450.277646,44.861225 C452.956892,44.0158694 455.58263,43.0787104 458.196901,43.0787104 Z M454.539214,0 C455.016969,0 455.666714,0.126229572 456.247664,0.179781512 C456.488452,0.306011085 456.836257,0.577595922 457.015893,0.638798139 C458.816071,1.12841587 460.75002,1.67923583 462.42025,2.26830716 C463.861157,2.78852601 465.355572,3.76776148 466.89203,4.43333559 C467.908691,4.87322652 469.341954,5.16393705 470.507675,5.78743464 C471.145955,6.12022169 472.319319,6.84317288 473.290116,7.47814588 C473.985726,7.92186195 474.589608,9.18033254 474.253269,9.90710886 C474.299133,9.98743677 474.448192,10.1060161 474.654582,10.2857976 L474.654582,10.8748689 L474.012481,10.8748689 C473.901642,11.0087488 473.924574,11.1082024 474.134786,11.4830659 C473.901642,11.6857983 473.775514,11.6092955 473.313048,11.6092955 C472.850582,11.6092955 471.753658,12.4355255 471.302658,12.4355255 C470.832548,12.4355255 470.289819,12.0262356 469.834997,12.0262356 C469.372531,12.0262356 468.386446,12.5502796 467.602929,12.9251432 C466.670352,13.0551979 465.33264,12.3704981 464.644674,13.2082034 C461.877521,13.2617554 459.121834,13.6901709 456.434943,13.720772 C456.434943,13.720772 456.285884,13.8049251 456.075672,13.9158541 C455.127808,13.9579306 454.015596,13.831701 452.918672,13.9311546 C451.313417,14.0420836 449.341247,13.636619 447.69395,14.4054718 C446.769018,14.8185868 445.125543,15.9584781 444.192967,16.8076588 C443.138085,17.7639435 441.100941,19.0874414 439.988729,20.4721416 C439.281652,21.3710491 437.75666,22.002197 436.81644,22.8666783 C435.773024,23.7923618 434.771651,25.0202313 433.747346,26.0224176 C428.507337,31.1289776 422.25831,38.2169593 417.840038,43.2125903 C415.153148,46.2306246 412.630605,49.9371839 410.345028,52.5880049 C409.347477,53.724071 408.37668,55.1431974 407.149807,56.3748921 C407.134519,56.5049468 407.123053,56.8071327 407.038968,56.9486628 C406.717917,57.2393734 406.217231,57.4000292 406.060528,57.6524883 C405.120307,58.9645109 404.180086,60.7278997 403.113739,62.3344579 C402.001527,62.2197038 401.791315,63.0841851 401.351781,63.5967537 C401.015442,64.0136938 400.170772,64.1475736 399.834433,64.6371913 C399.005052,65.8344597 399.066204,67.4333676 397.640585,68.408778 C397.617653,68.7836415 397.617653,69.349762 397.53739,69.8126038 C397.02906,70.2524947 396.386958,70.4514019 396.176746,70.784189 C396.027687,71.0175225 396.138526,71.4956648 395.870983,71.9087797 C394.877254,73.4158843 394.288661,74.9841911 393.25289,76.4912957 C393.222313,76.6175253 393.394305,76.5907493 393.394305,76.9388369 C393.394305,77.2945748 392.996813,77.2486732 392.87833,77.3596022 C392.488483,78.3158868 391.876957,79.2147944 391.624703,80.2590572 C391.242499,81.7240853 390.206728,83.9962176 389.595202,85.4382948 C388.570897,87.8863835 388.070211,90.606057 387.263761,92.9508669 C387.152922,93.1382987 386.950355,93.31043 386.854804,93.421359 C386.816583,93.7962226 386.62166,94.3585179 386.4726,94.9246384 C386.270032,95.7508684 386.258566,96.7683552 385.971914,97.5831097 C385.799922,97.6902136 385.658507,97.6596125 385.524736,97.728465 C385.689083,98.0689023 385.884007,98.8951323 385.884007,99.2355696 C385.884007,99.5798321 385.352744,100.589669 385.352744,100.933931 L385.352744,103.408796 C385.352744,103.776009 384.511896,104.927376 384.435456,105.684753 C384.160269,107.780929 384.25582,108.044864 384.25582,108.415902 C384.25582,108.741039 383.881261,108.878744 383.881261,109.016449 C384.06854,112.382571 384.06854,113.078746 384.06854,113.438309 C384.06854,113.782572 384.592159,113.989129 384.592159,114.333391 C384.592159,114.681479 384.435456,114.757982 384.374303,114.99514 C384.06854,115.033392 383.567854,114.83831 383.39204,114.673829 C383.361464,114.222462 383.16654,113.924102 383.0901,113.518637 C382.822557,112.520276 382.115481,111.560166 381.912913,110.584756 C381.748565,109.620821 381.500133,108.484755 381.328142,107.582022 L381.702701,107.314262 C380.980337,106.445956 380.980337,105.401693 380.957404,104.418632 C380.919184,101.610981 380.957404,101.209341 380.957404,100.849778 C380.957404,100.497865 380.418497,100.153603 380.418497,99.7902147 C380.418497,99.4536025 380.957404,99.4536025 380.957404,99.0978646 C380.957404,98.7459519 380.590489,98.8186295 380.590489,98.4667167 C380.590489,97.5525086 380.808345,98.2333833 380.957404,95.3148026 C380.980337,94.7372067 381.500133,94.0066052 381.500133,93.6623427 L381.500133,91.8148008 C381.500133,91.4667132 382.157523,89.7186249 382.344803,88.7393894 C382.673498,87.2131591 382.956328,85.4727211 383.376752,83.9732668 C383.464659,83.6290043 384.06854,83.4645233 384.183201,83.1432117 C384.592159,81.9191673 384.982007,80.6415711 385.241905,79.3333737 C385.390964,79.1688927 385.578244,78.8973079 385.658507,78.7863789 C386.636948,76.4109678 387.363134,74.0432071 388.414194,71.6524955 C388.265134,70.9945716 388.63205,70.8606918 388.773465,70.5317299 C389.331482,69.3153358 390.122643,67.8732586 390.952025,66.4656076 C391.154593,66.4158808 391.234855,66.312602 391.326584,66.2207987 C391.169881,65.2415632 392.610788,64.3082294 393.161161,63.1186113 C393.959966,61.4623263 394.281017,59.7065877 395.133331,58.1000295 C396.081195,56.1874603 397.365399,54.248115 398.580806,52.3470212 C399.157933,51.4825398 400.434493,50.5415558 401.233298,49.6732493 C401.328849,49.55467 401.195077,49.2295332 401.351781,48.9923746 C402.223205,47.6574013 403.029654,46.681991 403.985163,45.2246132 C404.29857,44.750296 404.382654,44.061771 404.634909,43.591279 C404.776324,43.3388199 405.46429,43.0251585 405.823561,42.6732457 C406.201943,42.3251581 406.201943,41.8470158 406.465663,41.4415511 C406.748494,41.0475619 407.413528,40.7185999 407.837774,40.3131353 C408.082384,40.056851 408.082384,39.5825338 408.30024,39.2459216 C408.644223,38.733353 409.232816,38.4082163 409.458316,37.960675 C409.569155,37.7235165 409.38952,37.3639534 409.584443,37.1114943 C410.150105,36.3502917 411.518393,36.1131331 411.518393,35.5623132 C411.518393,35.2142256 412.198715,35.2639524 412.26369,35.363406 C412.317198,35.2639524 412.061122,35.363406 412.061122,35.0038429 C412.061122,34.6595805 412.428037,34.3726951 412.48919,34.0781594 C412.607673,33.3858093 413.024275,32.6016559 413.624334,32.0890874 C414.323766,31.4923657 415.550639,31.0180486 416.242428,30.2530209 C416.460284,30.0158623 416.101012,29.7748785 416.169809,29.4765177 C416.26536,28.8721458 417.117674,28.6158615 417.626004,28.0114897 C417.878258,27.7666808 417.767419,27.2655876 418.042606,27.0360793 C418.302504,26.8371721 418.841411,26.6382649 419.162462,26.2021991 C420.431378,24.5497393 421.967835,22.8169515 423.687751,21.0344369 C423.813878,20.8814314 424.314565,20.8317046 424.635616,20.7819778 C424.792319,20.6901745 424.692946,20.5562946 424.647082,20.2235076 C425.327404,19.737715 425.537616,19.1524688 426.298201,18.827332 C426.596319,18.2114847 426.67276,17.5650363 427.200201,17.2054732 C427.807904,16.8497353 428.614354,16.5131232 429.32143,16.1076585 C430.276939,16.4672215 431.301244,15.5836145 431.301244,14.9448163 C431.301244,13.2617554 426.382285,13.3688593 425.931285,13.361209 C425.709607,13.2617554 425.812802,12.9825203 425.335048,12.9825203 C424.903158,12.9825203 424.425404,13.2617554 423.978226,13.2617554 C423.515759,13.2617554 420.205878,12.5732304 419.720479,12.5732304 L416.861597,12.5732304 C416.399131,12.5732304 416.295936,12.0262356 415.825826,12.0262356 C415.371004,12.0262356 415.558283,12.2901702 415.088173,12.2901702 C414.644817,12.2901702 414.281724,12.1524652 413.788681,12.1180389 C413.735173,11.8655798 413.563181,11.6398966 413.444698,11.429514 C413.375902,11.4601151 413.188622,11.6092955 413.093071,11.9918094 C412.389817,11.8579295 411.705673,11.8655798 410.922156,11.8196781 C410.711944,11.704924 410.681367,11.5710441 410.570528,11.4868911 C409.450672,11.6092955 407.807197,11.4601151 406.36629,11.2573828 C405.770053,11.2038308 405.0324,10.7562896 404.569934,10.7562896 C404.126578,10.7562896 404.023383,11.0355247 403.553273,11.0355247 C403.106095,11.0355247 402.582476,10.6530109 402.207917,10.6491857 C400.904603,10.5841584 399.306992,10.5229562 397.976924,10.3699506 C396.497797,10.2016445 394.858144,10.0601144 393.222313,9.95301053 C392.832466,9.93770997 392.305025,10.0601144 390.420762,9.98743677 C390.420762,9.98743677 390.19144,9.89180831 390.092067,9.8114804 C387.802668,10.2437211 386.235634,9.35246377 385.540024,9.35246377 C385.077558,9.35246377 383.158896,9.92623456 382.704074,9.92623456 C382.241608,9.92623456 381.396938,9.6431743 380.957404,9.6431743 C380.487294,9.6431743 379.696133,9.70055138 379.000523,9.84973179 C377.827158,10.1174915 376.111064,9.8114804 374.76953,10.0907155 C374.31853,10.1786937 374.192403,10.4847048 373.729937,10.4847048 C373.267471,10.4847048 372.281386,10.3393495 371.639284,10.0601144 C371.325877,10.1786937 371.302945,10.4847048 370.916919,10.5688578 C368.528148,10.7562896 365.944452,11.0355247 363.64741,11.0623007 C363.257562,11.3644867 362.749231,11.7661262 362.324986,11.8196781 C361.24335,11.9650334 359.959146,12.2901702 358.755205,12.4967277 C358.606146,12.7683125 357.799697,13.0398973 357.367807,13.2082034 C356.805968,13.4224112 354.776467,13.9311546 354.776467,14.9448163 C354.776467,16.7464566 358.113104,18.8388074 359.374375,19.4852558 C360.375748,19.9633981 361.564401,20.6901745 362.718655,21.0497375 C365.080673,21.7994646 367.794317,23.2415419 369.319309,25.0737832 C370.760216,26.7568442 371.773055,28.5776102 373.045793,30.4366275 L373.045793,31.1289776 L372.067352,31.1289776 C371.826564,30.8153162 371.639284,30.4825292 371.574309,30.1229661 C371.146241,29.8819824 370.760216,29.6027473 370.221309,29.2431843 C370.163979,29.1131296 370.163979,28.8415447 370.125758,28.7344408 C366.735614,26.9787022 363.303427,24.7065699 359.638095,23.1229626 C359.324688,23.0082084 359.167985,22.6754214 358.716985,22.5224158 C357.688858,22.1858036 355.353595,21.7229619 355.032544,20.9579342 C351.095848,20.3306114 348,16.8918119 348,13.969406 C348,11.7240497 351.478051,8.07869263 352.464136,7.70765419 C352.819586,7.43606936 353.389069,7.13388341 354.126721,6.86229857 C354.226094,7.11475772 355.151027,6.92732593 355.590561,6.28087751 C355.590561,6.28087751 356.794502,6.57541318 357.234036,6.57541318 C357.704146,6.57541318 358.533527,5.94809046 359.106833,5.76830894 C359.412595,5.67650562 361.415341,5.33606829 361.67524,5.11038511 C361.698172,4.40273448 365.317639,4.90765277 365.466698,3.80218773 C368.310292,3.99726979 368.310292,3.19781583 368.684851,3.19781583 C369.124385,3.19781583 369.976699,3.63770677 370.439165,3.63770677 C370.893987,3.63770677 370.97425,3.19781583 371.42525,3.19781583 C371.880072,3.19781583 371.998555,3.63770677 372.438089,3.63770677 C372.892911,3.63770677 374.50581,3.35464651 375.514827,3.20546611 C375.774725,3.38524762 375.797658,3.35464651 377.292073,3.19781583 C377.494641,3.19781583 377.800404,3.38524762 378.098522,3.64153191 C378.201717,3.63770677 378.255226,3.38524762 378.499836,3.19781583 L389.900965,3.19781583 C391.31894,3.19781583 396.138526,3.80218773 397.350111,3.67213302 C399.169399,4.04317146 400.759366,4.02022062 402.418129,4.2459038 C402.521323,4.40273448 402.521323,4.50218808 402.582476,4.59399141 C402.842374,4.48306239 403.350705,4.50218808 403.763485,4.20382727 C404.210663,4.196177 404.367366,4.64371821 404.799256,4.70874556 C407.123053,5.04153262 409.584443,5.04153262 411.862376,5.33606829 C412.691758,5.45082244 413.89952,5.86776255 414.369631,5.86776255 C414.816809,5.86776255 414.644817,5.58087716 415.088173,5.58087716 C415.558283,5.58087716 415.64619,5.89453852 415.787606,5.95956587 C416.662851,6.01694295 417.767419,6.12787197 418.66942,6.17759877 C421.417462,6.33060431 423.978226,6.71694331 426.38993,6.92732593 C428.545557,7.11475772 430.69354,7.24481243 432.963829,7.39781797 C437.882788,7.74208044 438.264991,7.26393812 438.719813,7.29071409 C438.719813,7.29071409 438.979711,7.54699837 438.930025,7.77650669 C438.631906,7.82623349 438.719813,7.66940281 438.264991,7.66940281 C437.810169,7.66940281 437.882788,7.71912961 437.703152,8.06721722 C437.825457,8.15902054 437.810169,8.09016805 438.264991,8.09016805 C438.84594,8.09016805 439.2205,8.19344679 439.017932,7.1721348 C439.377203,7.11475772 439.495686,7.29071409 439.526262,7.39781797 C441.055076,6.04754406 442.392788,4.74699695 444.231187,3.69125871 C444.617212,3.45027498 445.519213,3.51530233 446.035187,3.31256999 C446.597026,3.10218737 447.021272,2.5896188 447.476094,2.30273341 C448.079976,1.904919 449.322137,1.56065653 450.49168,1.0021863 C452.567044,1.28142142 453.763341,0 454.539214,0 L454.539214,0 Z" id="Treasures" fill="#AD8B5B"></path>
                </g>
            </g>
        </g>
    </g>
</svg>